<?xml version="1.0" encoding="utf-8"?>
<!-- Generator: Adobe Illustrator 16.0.3, SVG Export Plug-In . SVG Version: 6.00 Build 0)  -->
<!DOCTYPE svg PUBLIC "-//W3C//DTD SVG 1.1//EN" "http://www.w3.org/Graphics/SVG/1.1/DTD/svg11.dtd">
<svg version="1.1" id="Шар_1" xmlns="http://www.w3.org/2000/svg" xmlns:xlink="http://www.w3.org/1999/xlink" x="0px" y="0px"
	 width="21px" height="21px" viewBox="0 0 21 21" enable-background="new 0 0 21 21" xml:space="preserve">
<path fill="#FFFFFF" d="M15.374,0.386c-0.51-0.512-1.337-0.516-1.854-0.006c-0.136,0.137-0.229,0.299-0.294,0.467
	c-1.09,2.272-2.291,3.558-3.806,4.314c-1.7,0.838-3.652,1.422-6.797,1.422c-0.171,0-0.341,0.033-0.5,0.1
	C1.8,6.815,1.546,7.071,1.412,7.392c-0.132,0.32-0.132,0.682,0,1C1.479,8.556,1.575,8.699,1.696,8.82l4.251,4.249L0,21l7.93-5.946
	l4.25,4.249c0.121,0.121,0.266,0.217,0.427,0.284c0.161,0.066,0.33,0.103,0.501,0.103c0.17,0,0.34-0.036,0.5-0.103
	c0.321-0.132,0.577-0.386,0.708-0.71c0.067-0.157,0.101-0.33,0.101-0.5c0-3.144,0.582-5.097,1.421-6.768
	c0.755-1.517,2.038-2.719,4.316-3.808c0.169-0.063,0.329-0.158,0.464-0.295c0.509-0.514,0.507-1.343-0.005-1.853L15.374,0.386z"/>
</svg>
