<?xml version="1.0" encoding="utf-8"?>
<!-- Generator: Adobe Illustrator 16.0.3, SVG Export Plug-In . SVG Version: 6.00 Build 0)  -->
<!DOCTYPE svg PUBLIC "-//W3C//DTD SVG 1.1//EN" "http://www.w3.org/Graphics/SVG/1.1/DTD/svg11.dtd">
<svg version="1.1" id="Шар_1" xmlns="http://www.w3.org/2000/svg" xmlns:xlink="http://www.w3.org/1999/xlink" x="0px" y="0px"
	 width="41px" height="44.999px" viewBox="0 0 41 44.999" enable-background="new 0 0 41 44.999" xml:space="preserve">
<g>
	<g>
		<path fill-rule="evenodd" clip-rule="evenodd" fill="#FFFFFF" d="M40.99,5.364c-0.004-3.096-2.279-5.359-5.341-5.361
			c-7.758-0.006-15.516-0.002-23.274-0.002c-3.195,0-5.427,2.248-5.432,5.477c-0.002,1.176,0,2.354,0,3.617
			c-0.542,0-1.014-0.006-1.486,0.004c-0.352,0.008-0.709,0-1.054,0.061c-2.678,0.471-4.4,2.607-4.401,5.453
			C0,22.93,0,31.25,0.001,39.568c0.001,3.141,2.272,5.43,5.385,5.43C15.456,45,25.523,45,35.591,44.996
			c3.129,0,5.397-2.252,5.4-5.41C41.002,28.176,41.003,16.771,40.99,5.364z M36.941,39.512c0,0.977-0.427,1.402-1.393,1.402
			c-10.015,0-20.03,0-30.046-0.004c-1.046,0-1.449-0.4-1.449-1.449c-0.002-8.266-0.002-16.533,0.001-24.798
			c0-1.1,0.384-1.479,1.465-1.482c0.455-0.004,0.909,0,1.423,0c0,2.945,0.001,5.8,0,8.655c0,4.391-0.001,8.781,0.001,13.176
			c0,0.23,0.002,0.467,0.048,0.691c0.228,1.117,1.13,1.873,2.113,1.789c1.018-0.086,1.848-1.059,1.866-2.25
			c0.023-1.5,0.008-3,0.008-4.5c-0.001-8.336-0.001-16.673-0.002-25.011c-0.001-1.297,0.347-1.648,1.631-1.648
			c7.634,0,15.269,0.002,22.904,0.002c1.005,0,1.43,0.41,1.43,1.416C36.944,16.837,36.944,28.176,36.941,39.512z M34.696,9.126
			c-3.942,0-7.848,0-11.786,0c0,3.027,0,6.033,0,9.062c3.942,0,7.85,0,11.786,0C34.696,15.165,34.696,12.157,34.696,9.126z
			 M13.236,24.082c7.174,0,14.305,0,21.466,0c0-1.055,0-2.082,0-3.156c-7.183,0-14.328,0-21.466,0
			C13.236,22.004,13.236,23.045,13.236,24.082z M13.222,29.977c7.175,0,14.309,0,21.469,0c0-1.066,0-2.105,0-3.164
			c-7.174,0-14.307,0-21.469,0C13.222,27.869,13.222,28.898,13.222,29.977z M13.222,35.854c7.187,0,14.332,0,21.467,0
			c0-1.072,0-2.1,0-3.143c-7.174,0-14.306,0-21.467,0C13.222,33.766,13.222,34.793,13.222,35.854z M20.178,9.114
			c-2.333,0-4.618,0-6.943,0c0,1.09,0,2.129,0,3.166c2.34,0,4.638,0,6.943,0C20.178,11.206,20.178,10.169,20.178,9.114z
			 M20.186,15.024c-2.34,0-4.639,0-6.965,0c0,1.055,0,2.082,0,3.157c2.343,0,4.643,0,6.965,0
			C20.186,17.114,20.186,16.075,20.186,15.024z"/>
	</g>
</g>
</svg>
