<?xml version="1.0" encoding="utf-8"?>
<!-- Generator: Adobe Illustrator 16.0.3, SVG Export Plug-In . SVG Version: 6.00 Build 0)  -->
<!DOCTYPE svg PUBLIC "-//W3C//DTD SVG 1.1//EN" "http://www.w3.org/Graphics/SVG/1.1/DTD/svg11.dtd">
<svg version="1.1" id="Шар_1" xmlns="http://www.w3.org/2000/svg" xmlns:xlink="http://www.w3.org/1999/xlink" x="0px" y="0px"
	 width="42.037px" height="28.001px" viewBox="0 0 42.037 28.001" enable-background="new 0 0 42.037 28.001" xml:space="preserve">
<path fill="#FFFFFF" d="M21.02,0C7.131,0,0,14.001,0,14.001s5.381,14,21.02,14c14.163,0,21.018-13.945,21.018-13.945
	S35.128,0,21.02,0z M21.051,22.751c-5.079,0-8.75-3.828-8.75-8.75c0-4.923,3.671-8.75,8.75-8.75c5.077,0,8.749,3.827,8.749,8.75
	C29.8,18.923,26.128,22.751,21.051,22.751z M21.051,8.75c-2.902,0.006-5.25,2.439-5.25,5.25c0,2.81,2.348,5.249,5.25,5.249
	c2.9,0,5.249-2.439,5.249-5.249C26.3,11.188,23.952,8.746,21.051,8.75z"/>
</svg>
