<?xml version="1.0" encoding="utf-8"?>
<!-- Generator: Adobe Illustrator 16.0.3, SVG Export Plug-In . SVG Version: 6.00 Build 0)  -->
<!DOCTYPE svg PUBLIC "-//W3C//DTD SVG 1.1//EN" "http://www.w3.org/Graphics/SVG/1.1/DTD/svg11.dtd">
<svg version="1.1" id="Шар_1" xmlns="http://www.w3.org/2000/svg" xmlns:xlink="http://www.w3.org/1999/xlink" x="0px" y="0px"
	 width="52px" height="56px" viewBox="0 0 52 56" enable-background="new 0 0 52 56" xml:space="preserve">
<path fill="#FFFFFF" d="M51.714,46.969l-5.715-9.523V24c0-10.354-7.908-18.893-18-19.898V2c0-1.104-0.896-2-1.999-2
	c-1.104,0-2.001,0.896-2.001,2v4c0,1.102,0.897,2,2.001,2c8.822,0,16,7.178,16,16v14c0,0.363,0.098,0.719,0.285,1.031L46.464,46
	H5.531l4.182-6.969C9.902,38.719,10,38.363,10,38V24c0-6.16,3.599-11.84,9.169-14.477c0.998-0.473,1.425-1.664,0.952-2.664
	c-0.472-0.996-1.664-1.426-2.664-0.951C10.498,9.201,5.999,16.301,5.999,24v13.445l-5.714,9.527
	c-0.372,0.617-0.38,1.387-0.025,2.016C0.613,49.613,1.279,50,1.999,50h16.284c0.894,3.441,4,6,7.717,6c3.718,0,6.821-2.559,7.714-6
	H50c0.719,0,1.382-0.387,1.74-1.014C52.096,48.359,52.085,47.586,51.714,46.969z M26,52c-1.475,0-2.751-0.811-3.445-2h6.886
	C28.749,51.189,27.472,52,26,52z"/>
</svg>
