<?xml version="1.0" encoding="utf-8"?>
<!-- Generator: Adobe Illustrator 16.0.3, SVG Export Plug-In . SVG Version: 6.00 Build 0)  -->
<!DOCTYPE svg PUBLIC "-//W3C//DTD SVG 1.1//EN" "http://www.w3.org/Graphics/SVG/1.1/DTD/svg11.dtd">
<svg version="1.1" id="Шар_1" xmlns="http://www.w3.org/2000/svg" xmlns:xlink="http://www.w3.org/1999/xlink" x="0px" y="0px"
	 width="45px" height="38.16px" viewBox="0 0 45 38.16" enable-background="new 0 0 45 38.16" xml:space="preserve">
<path fill-rule="evenodd" clip-rule="evenodd" fill="#FFFFFF" d="M45,16.891c-0.089,0.174-0.188,0.344-0.266,0.525
	c-0.662,1.525-1.451,2.973-2.642,4.168c-0.958,0.963-2.061,1.625-3.484,1.561c-0.36-0.016-0.719-0.102-1.095-0.16
	c-0.447,0.891-0.899,1.789-1.38,2.742c1.53-0.344,3.026-0.27,4.505,0.07c0.806,0.186,1.595,0.445,2.469,0.693
	c-0.215,0.285-0.368,0.504-0.537,0.711c-1.278,1.566-2.692,2.988-4.468,4.004c-2.199,1.258-4.379,1.479-6.504-0.262
	c-1.907,1.6-4.017,2.881-6.275,3.922c-0.002,0.051-0.003,0.1-0.005,0.146c1.947,0.445,3.894,0.887,5.904,1.344
	c-0.092,0.555-0.189,1.145-0.299,1.805c-0.924-0.184-1.818-0.311-2.687-0.539c-1.832-0.477-3.649-1.014-5.478-1.508
	c-0.191-0.053-0.433-0.035-0.623,0.031c-2.511,0.883-5.095,1.477-7.711,1.951c-0.097,0.02-0.2,0.002-0.341,0.002
	c-0.101-0.578-0.2-1.158-0.302-1.742c1.987-0.449,3.943-0.893,5.899-1.336c0.009-0.045,0.017-0.092,0.024-0.137
	c-2.245-1.063-4.371-2.309-6.27-3.928c-0.076,0.045-0.142,0.076-0.195,0.119c-1.547,1.227-3.251,1.42-5.072,0.729
	C6.25,31.07,4.752,29.76,3.384,28.289c-0.503-0.541-0.962-1.123-1.487-1.74c2.3-0.861,4.565-1.342,6.979-0.828
	c-0.471-0.936-0.919-1.822-1.381-2.736c-0.319,0.053-0.658,0.137-1.002,0.16c-1.459,0.094-2.596-0.57-3.572-1.559
	C1.566,20.215,0.711,18.543,0,16.719c1.08-0.162,2.115-0.08,3.151,0.08c1.034,0.16,1.987,0.533,2.899,1.076
	c-0.1-1.238-0.195-2.434-0.294-3.658c-1.72-0.324-2.596-1.521-3.047-3.117C2.265,9.523,2.31,7.928,2.468,6.277
	c1.474,0.6,2.746,1.387,3.778,2.605c0.219-0.9,0.467-1.73,0.609-2.58C6.935,5.83,6.77,5.32,6.834,4.844
	c0.11-0.813,0.563-1.479,1.128-2.068c1.151-1.201,2.576-1.971,4.106-2.602c0.469,2.436-0.173,5.813-3.24,7.041
	C8.719,7.258,8.58,7.354,8.552,7.451c-0.387,1.381-0.637,2.787-0.753,4.348c1.324-1.342,2.771-2.314,4.49-3.158
	c0.065,1.07,0.203,2.063,0.17,3.047c-0.065,1.953-0.689,3.711-2.276,4.98C9.544,17.178,8.789,17.543,8.046,18
	c0.251,1.469,0.679,2.973,1.36,4.521c0.549-1.971,1.444-3.656,2.634-5.26c0.671,0.785,1.202,1.609,1.628,2.494
	c1.182,2.459,1.272,4.873-0.359,7.195c-0.167,0.238-0.357,0.459-0.594,0.76c0.827,0.766,1.661,1.539,2.494,2.313
	c-0.221-1.908-0.072-3.73,0.305-5.617c0.312,0.17,0.591,0.316,0.863,0.473c1.211,0.699,2.299,1.543,3.15,2.66
	c1.216,1.602,1.596,3.389,1.178,5.336c-0.066,0.309,0.016,0.426,0.277,0.506c0.068,0.021,0.14,0.049,0.199,0.088
	c0.971,0.623,1.914,0.547,2.86-0.164c-0.64-1.797-0.607-3.611,0.333-5.359c0.909-1.689,2.327-2.877,3.933-3.885
	c0.552,1.168,1.057,4.24,0.731,6.568c1.09-0.961,2.18-1.924,3.294-2.906c-0.799-0.885-1.36-1.793-1.641-2.846
	c-0.49-1.846-0.146-3.596,0.722-5.25c0.428-0.814,0.964-1.572,1.504-2.439c1.231,1.664,2.137,3.34,2.684,5.33
	c0.691-1.543,1.104-3.041,1.382-4.613c-0.236-0.104-0.475-0.205-0.708-0.313c-2.168-1.018-3.33-2.756-3.646-5.068
	c-0.092-0.67-0.092-1.359-0.067-2.037c0.021-0.588,0.139-1.172,0.221-1.818c1.645,0.809,3.091,1.77,4.418,3.02
	c-0.039-0.414-0.048-0.832-0.121-1.24c-0.169-0.939-0.355-1.873-0.57-2.803c-0.04-0.172-0.213-0.381-0.378-0.453
	c-1.995-0.863-2.986-2.445-3.237-4.51c-0.099-0.811-0.016-1.643-0.016-2.521c1.034,0.379,1.981,0.838,2.807,1.48
	c0.673,0.521,1.313,1.113,1.855,1.766c0.637,0.766,0.847,1.701,0.622,2.699c-0.02,0.082-0.032,0.178-0.013,0.258
	c0.195,0.813,0.399,1.621,0.618,2.508c1.026-1.205,2.291-1.994,3.752-2.582c0.176,1.139,0.18,2.248,0.056,3.352
	c-0.067,0.602-0.201,1.201-0.383,1.777c-0.461,1.469-1.368,2.504-2.937,2.795c-0.098,1.223-0.194,2.416-0.294,3.656
	c1.88-1.113,3.909-1.396,6.037-1.152C45,16.773,45,16.832,45,16.891z"/>
</svg>
