<?xml version="1.0" encoding="utf-8"?>
<!-- Generator: Adobe Illustrator 16.0.3, SVG Export Plug-In . SVG Version: 6.00 Build 0)  -->
<!DOCTYPE svg PUBLIC "-//W3C//DTD SVG 1.1//EN" "http://www.w3.org/Graphics/SVG/1.1/DTD/svg11.dtd">
<svg version="1.1" id="Шар_1" xmlns="http://www.w3.org/2000/svg" xmlns:xlink="http://www.w3.org/1999/xlink" x="0px" y="0px"
	 width="34px" height="34px" viewBox="0 0 34 34" enable-background="new 0 0 34 34" xml:space="preserve">
<path fill="#FFFFFF" d="M17,0C7.612,0,0,7.611,0,17c0,9.387,7.612,17,17,17c9.389,0,17-7.613,17-17C34,7.611,26.389,0,17,0z
	 M23.251,23.67l-0.495,0.496c-0.412,0.412-1.11,0.432-1.542,0.041l-6.406-5.604c-0.437-0.389-0.767-1.186-0.737-1.771l0.593-10.105
	c0.031-0.586,0.534-1.063,1.119-1.063h0.699c0.585,0,1.087,0.477,1.115,1.063l0.488,8.406c0.028,0.582,0.37,1.416,0.757,1.854
	l4.454,5.141C23.683,22.563,23.666,23.258,23.251,23.67z"/>
</svg>
