<?xml version="1.0" encoding="utf-8"?>
<!-- Generator: Adobe Illustrator 16.0.3, SVG Export Plug-In . SVG Version: 6.00 Build 0)  -->
<!DOCTYPE svg PUBLIC "-//W3C//DTD SVG 1.1//EN" "http://www.w3.org/Graphics/SVG/1.1/DTD/svg11.dtd">
<svg version="1.1" id="Шар_1" xmlns="http://www.w3.org/2000/svg" xmlns:xlink="http://www.w3.org/1999/xlink" x="0px" y="0px"
	 width="8px" height="40.002px" viewBox="0 0 8 40.002" enable-background="new 0 0 8 40.002" xml:space="preserve">
<path fill-rule="evenodd" clip-rule="evenodd" fill="#FFFFFF" d="M4,0c2.209,0,4,1.789,4,4c0,2.209-1.791,4-4,4S0,6.209,0,4
	C0,1.789,1.791,0,4,0z"/>
<path fill-rule="evenodd" clip-rule="evenodd" fill="#FFFFFF" d="M4,16.001c2.209,0,4,1.789,4,4c0,2.209-1.791,4-4,4s-4-1.791-4-4
	C0,17.79,1.791,16.001,4,16.001z"/>
<path fill-rule="evenodd" clip-rule="evenodd" fill="#FFFFFF" d="M4,32.002c2.209,0,4,1.789,4,4c0,2.209-1.791,4-4,4s-4-1.791-4-4
	C0,33.791,1.791,32.002,4,32.002z"/>
</svg>
