<?xml version="1.0" encoding="utf-8"?>
<!-- Generator: Adobe Illustrator 16.0.3, SVG Export Plug-In . SVG Version: 6.00 Build 0)  -->
<!DOCTYPE svg PUBLIC "-//W3C//DTD SVG 1.1//EN" "http://www.w3.org/Graphics/SVG/1.1/DTD/svg11.dtd">
<svg version="1.1" id="Шар_1" xmlns="http://www.w3.org/2000/svg" xmlns:xlink="http://www.w3.org/1999/xlink" x="0px" y="0px"
	 width="34px" height="34px" viewBox="0 0 34 34" enable-background="new 0 0 34 34" xml:space="preserve">
<path fill="#FFFFFF" d="M34.001,31.163l-8.733-8.733c1.754-2.342,2.804-5.241,2.804-8.394C28.072,6.281,21.789,0,14.037,0
	C6.286,0,0.001,6.281,0.001,14.036c0,7.752,6.284,14.033,14.036,14.033c3.152,0,6.05-1.05,8.392-2.804L31.164,34L34.001,31.163z
	 M4.012,14.034c0-5.528,4.498-10.025,10.025-10.025c5.527,0,10.025,4.497,10.025,10.025c0,5.527-4.498,10.024-10.025,10.024
	C8.509,24.059,4.012,19.562,4.012,14.034z"/>
</svg>
